<svg xmlns="http://www.w3.org/2000/svg" width="24.155" height="21.499" viewBox="0 0 24.155 21.499"><defs><style>.a{fill:#fff;}</style></defs><g transform="translate(0 0)"><path class="a" d="M13.431,18.5a.811.811,0,0,1-.775-.576L9.188,6.541A.814.814,0,0,1,9.967,5.49H28.785A.811.811,0,0,1,29.6,6.3v8.924a.811.811,0,0,1-.686.811L13.553,18.5ZM11.062,7.113,14,16.779l13.97-2.255V7.113Zm17.723,8.113Z" transform="translate(-5.441 -3.263)"/><path class="a" d="M23.786,44.085a3.042,3.042,0,1,1,3.038-3.038A3.042,3.042,0,0,1,23.786,44.085Zm0-4.462a1.42,1.42,0,1,0,1.416,1.42,1.42,1.42,0,0,0-1.416-1.42Z" transform="translate(-12.328 -22.585)"/><path class="a" d="M45.756,44.085a3.042,3.042,0,1,1,3.038-3.038A3.042,3.042,0,0,1,45.756,44.085Zm0-4.462a1.42,1.42,0,1,0,1.416,1.42,1.42,1.42,0,0,0-1.416-1.42Z" transform="translate(-25.386 -22.585)"/><path class="a" d="M4.618,4.15a.811.811,0,0,1-.771-.556l-.54-1.623L1.178,3.022A.812.812,0,1,1,.452,1.57L3.422.085A.811.811,0,0,1,4.553.556l.836,2.531A.811.811,0,0,1,4.618,4.15Z" transform="translate(-0.003 0)"/></g></svg>