<svg xmlns="http://www.w3.org/2000/svg" width="17.873" height="22.517" viewBox="0 0 17.873 22.517"><defs><style>.a{fill:#fff;}</style></defs><g transform="translate(0.03)"><g transform="translate(-0.03)"><path class="a" d="M15.5,10.427A4.991,4.991,0,0,1,10.53,5.216a4.972,4.972,0,1,1,9.932,0A4.98,4.98,0,0,1,15.5,10.427Zm0-8.926a3.48,3.48,0,0,0-3.471,3.715,3.473,3.473,0,1,0,6.93,0A3.475,3.475,0,0,0,15.5,1.5Z" transform="translate(-6.568)"/><path class="a" d="M.732,41.625A.75.75,0,0,1,.2,41.407a.75.75,0,0,1-.221-.672L1.809,31.2a.75.75,0,0,1,.75-.612H15.714a.75.75,0,0,1,.75.593l1.362,6.356a.75.75,0,0,1-.589.893L.875,41.625a.593.593,0,0,1-.143,0Zm2.435-9.534-1.5,7.835,14.513-2.8-1.073-5.032Z" transform="translate(0.03 -19.112)"/></g></g></svg>